<svg xmlns="http://www.w3.org/2000/svg" xmlns:xlink="http://www.w3.org/1999/xlink" width="278" zoomAndPan="magnify" viewBox="0 0 208.5 207.000001" height="276" preserveAspectRatio="xMidYMid meet" version="1.0"><defs><clipPath id="47d7ad0e84"><path d="M 2.078125 0 L 116 0 L 116 114 L 2.078125 114 Z M 2.078125 0 " clip-rule="nonzero"/></clipPath><clipPath id="ae24061528"><path d="M 73 63.222656 L 207.324219 63.222656 L 207.324219 139.199219 L 73 139.199219 Z M 73 63.222656 " clip-rule="nonzero"/></clipPath><clipPath id="f2409fd4b9"><path d="M 140.035156 101.210938 L 207.324219 101.210938 L 207.324219 205.21875 L 140.035156 205.21875 Z M 140.035156 101.210938 " clip-rule="nonzero"/></clipPath><clipPath id="9264a17f85"><path d="M 73 101.210938 L 140.433594 101.210938 L 140.433594 205.21875 L 73 205.21875 Z M 73 101.210938 " clip-rule="nonzero"/></clipPath><clipPath id="535cfedef0"><path d="M 0.253906 0 L 114 0 L 114 114 L 0.253906 114 Z M 0.253906 0 " clip-rule="nonzero"/></clipPath><clipPath id="2e1a3cd395"><path d="M 71.03125 63.222656 L 205.5 63.222656 L 205.5 139.199219 L 71.03125 139.199219 Z M 71.03125 63.222656 " clip-rule="nonzero"/></clipPath><clipPath id="4d7fa3399c"><path d="M 138.210938 101.210938 L 205.5 101.210938 L 205.5 205.21875 L 138.210938 205.21875 Z M 138.210938 101.210938 " clip-rule="nonzero"/></clipPath><clipPath id="680c471096"><path d="M 71.03125 101.210938 L 138.609375 101.210938 L 138.609375 205.21875 L 71.03125 205.21875 Z M 71.03125 101.210938 " clip-rule="nonzero"/></clipPath></defs><g clip-path="url(#47d7ad0e84)"><path fill="#dc3522" d="M 58.839844 107.875 C 30.628906 107.875 7.757812 85.007812 7.757812 56.792969 C 7.757812 28.585938 30.628906 5.714844 58.839844 5.714844 C 87.046875 5.714844 109.914062 28.585938 109.914062 56.792969 C 109.914062 62.613281 108.925781 68.199219 107.132812 73.410156 L 111.667969 70.859375 L 114.15625 69.464844 C 115.085938 65.386719 115.589844 61.152344 115.589844 56.792969 C 115.589844 25.449219 90.183594 0.0390625 58.839844 0.0390625 C 27.492188 0.0390625 2.078125 25.449219 2.078125 56.792969 C 2.078125 88.140625 27.492188 113.550781 58.839844 113.550781 C 60.910156 113.550781 62.953125 113.433594 64.964844 113.21875 L 64.964844 107.496094 C 62.957031 107.734375 60.914062 107.875 58.839844 107.875 " fill-opacity="1" fill-rule="nonzero"/></g><path fill="#f8a14e" d="M 58.839844 5.714844 C 30.628906 5.714844 7.757812 28.585938 7.757812 56.792969 C 7.757812 85.007812 30.628906 107.875 58.839844 107.875 C 60.914062 107.875 62.957031 107.734375 64.964844 107.496094 L 64.964844 102.351562 C 62.960938 102.617188 60.917969 102.769531 58.839844 102.769531 C 33.445312 102.769531 12.863281 82.1875 12.863281 56.792969 C 12.863281 31.40625 33.445312 10.824219 58.839844 10.824219 C 84.222656 10.824219 104.804688 31.40625 104.804688 56.792969 C 104.804688 64.242188 103.023438 71.265625 99.882812 77.488281 L 107.132812 73.410156 C 108.925781 68.199219 109.914062 62.613281 109.914062 56.792969 C 109.914062 28.585938 87.046875 5.714844 58.839844 5.714844 " fill-opacity="1" fill-rule="nonzero"/><path fill="#e26425" d="M 99.882812 77.488281 C 103.023438 71.265625 104.804688 64.242188 104.804688 56.792969 C 104.804688 31.40625 84.222656 10.824219 58.839844 10.824219 C 33.445312 10.824219 12.863281 31.40625 12.863281 56.792969 C 12.863281 82.1875 33.445312 102.769531 58.839844 102.769531 C 60.917969 102.769531 62.960938 102.617188 64.964844 102.351562 L 64.964844 97.121094 L 99.882812 77.488281 " fill-opacity="1" fill-rule="nonzero"/><path fill="#ffffff" d="M 61.199219 80.210938 C 64.058594 79.859375 66.414062 78.621094 68.28125 76.5 C 70.144531 74.378906 71.074219 71.753906 71.074219 68.625 C 71.074219 65.960938 70.414062 63.820312 69.09375 62.199219 C 67.777344 60.582031 65.144531 59.136719 61.199219 57.855469 Z M 56.875 29.460938 C 54.019531 29.894531 51.773438 31.035156 50.121094 32.890625 C 48.480469 34.738281 47.65625 36.925781 47.65625 39.457031 C 47.65625 41.957031 48.359375 44.054688 49.753906 45.738281 C 51.160156 47.425781 53.527344 48.769531 56.875 49.777344 Z M 56.875 93.753906 L 56.875 86.414062 C 53.203125 85.953125 50.21875 85.128906 47.917969 83.945312 C 45.625 82.761719 43.636719 80.851562 41.96875 78.214844 C 40.292969 75.578125 39.320312 72.351562 39.046875 68.542969 L 46.433594 67.15625 C 47.007812 71.101562 48.011719 73.996094 49.453125 75.847656 C 51.519531 78.460938 53.992188 79.914062 56.875 80.210938 L 56.875 56.835938 C 53.859375 56.261719 50.773438 55.09375 47.613281 53.328125 C 45.277344 52.023438 43.480469 50.214844 42.214844 47.902344 C 40.941406 45.589844 40.308594 42.964844 40.308594 40.023438 C 40.308594 34.804688 42.160156 30.574219 45.867188 27.335938 C 48.339844 25.164062 52.007812 23.832031 56.875 23.339844 L 56.875 19.832031 L 61.199219 19.832031 L 61.199219 23.339844 C 65.472656 23.75 68.863281 25 71.359375 27.097656 C 74.570312 29.757812 76.503906 33.417969 77.15625 38.070312 L 69.566406 39.210938 C 69.128906 36.328125 68.222656 34.117188 66.851562 32.582031 C 65.476562 31.042969 63.597656 30.03125 61.199219 29.542969 L 61.199219 50.714844 C 64.902344 51.636719 67.351562 52.363281 68.546875 52.878906 C 70.828125 53.882812 72.691406 55.109375 74.136719 56.550781 C 75.578125 57.992188 76.683594 59.703125 77.464844 61.691406 C 78.238281 63.675781 78.621094 65.824219 78.621094 68.136719 C 78.621094 73.21875 77.007812 77.464844 73.769531 80.863281 C 70.53125 84.265625 66.34375 86.085938 61.199219 86.332031 L 61.199219 93.753906 L 56.875 93.753906 " fill-opacity="1" fill-rule="nonzero"/><path fill="#dc3522" d="M 178.566406 36.511719 L 178.566406 11.199219 L 92.632812 11.199219 C 96.375 13.976562 99.761719 17.199219 102.714844 20.796875 L 168.96875 20.796875 L 168.96875 36.511719 L 147.859375 27.972656 L 173.769531 75.714844 L 199.667969 27.972656 L 178.566406 36.511719 " fill-opacity="1" fill-rule="nonzero"/><g clip-path="url(#ae24061528)"><path fill="#f8a14e" d="M 140.214844 63.539062 L 73.101562 101.273438 L 140.214844 139.007812 L 207.324219 101.273438 L 140.214844 63.539062 " fill-opacity="1" fill-rule="nonzero"/></g><path fill="#dc3522" d="M 102.03125 85.007812 L 169.140625 122.742188 L 179.5625 116.878906 L 112.453125 79.144531 L 102.03125 85.007812 " fill-opacity="1" fill-rule="nonzero"/><g clip-path="url(#f2409fd4b9)"><path fill="#e26425" d="M 207.324219 101.273438 L 140.214844 139.007812 L 140.214844 205.21875 L 207.324219 167.484375 L 207.324219 101.273438 " fill-opacity="1" fill-rule="nonzero"/></g><g clip-path="url(#9264a17f85)"><path fill="#f2853c" d="M 73.101562 101.273438 L 140.214844 139.007812 L 140.214844 205.21875 L 73.101562 167.484375 L 73.101562 101.273438 " fill-opacity="1" fill-rule="nonzero"/></g><path fill="#dc3522" d="M 117.167969 167.335938 L 135.769531 177.792969 L 135.769531 196.148438 L 117.167969 185.6875 L 117.167969 167.335938 " fill-opacity="1" fill-rule="nonzero"/><path fill="#dc3522" d="M 76.515625 162.527344 L 95.117188 172.988281 L 95.117188 170.488281 L 76.515625 160.03125 L 76.515625 162.527344 " fill-opacity="1" fill-rule="nonzero"/><path fill="#dc3522" d="M 179.5625 116.878906 L 169.140625 122.742188 L 169.140625 155.488281 L 179.5625 149.625 L 179.5625 116.878906 " fill-opacity="1" fill-rule="nonzero"/><path fill="#f2853c" d="M 40.382812 180.546875 L 40.382812 155.234375 L 61.492188 163.773438 L 35.585938 116.03125 L 9.683594 163.773438 L 30.785156 155.234375 L 30.785156 190.144531 L 113.402344 190.144531 L 96.332031 180.546875 L 40.382812 180.546875 " fill-opacity="1" fill-rule="nonzero"/><g clip-path="url(#535cfedef0)"><path fill="#dc3522" d="M 57.011719 107.875 C 28.804688 107.875 5.933594 85.007812 5.933594 56.792969 C 5.933594 28.585938 28.804688 5.714844 57.011719 5.714844 C 85.222656 5.714844 108.089844 28.585938 108.089844 56.792969 C 108.089844 62.613281 107.101562 68.199219 105.308594 73.410156 L 109.84375 70.859375 L 112.332031 69.464844 C 113.261719 65.386719 113.765625 61.152344 113.765625 56.792969 C 113.765625 25.449219 88.355469 0.0390625 57.011719 0.0390625 C 25.667969 0.0390625 0.253906 25.449219 0.253906 56.792969 C 0.253906 88.140625 25.667969 113.550781 57.011719 113.550781 C 59.085938 113.550781 61.128906 113.433594 63.140625 113.21875 L 63.140625 107.496094 C 61.132812 107.734375 59.089844 107.875 57.011719 107.875 " fill-opacity="1" fill-rule="nonzero"/></g><path fill="#f8a14e" d="M 57.011719 5.714844 C 28.804688 5.714844 5.933594 28.585938 5.933594 56.792969 C 5.933594 85.007812 28.804688 107.875 57.011719 107.875 C 59.089844 107.875 61.132812 107.734375 63.140625 107.496094 L 63.140625 102.351562 C 61.136719 102.617188 59.09375 102.769531 57.011719 102.769531 C 31.621094 102.769531 11.039062 82.1875 11.039062 56.792969 C 11.039062 31.40625 31.621094 10.824219 57.011719 10.824219 C 82.398438 10.824219 102.980469 31.40625 102.980469 56.792969 C 102.980469 64.242188 101.199219 71.265625 98.058594 77.488281 L 105.308594 73.410156 C 107.101562 68.199219 108.089844 62.613281 108.089844 56.792969 C 108.089844 28.585938 85.222656 5.714844 57.011719 5.714844 " fill-opacity="1" fill-rule="nonzero"/><path fill="#e26425" d="M 98.058594 77.488281 C 101.199219 71.265625 102.980469 64.242188 102.980469 56.792969 C 102.980469 31.40625 82.398438 10.824219 57.011719 10.824219 C 31.621094 10.824219 11.039062 31.40625 11.039062 56.792969 C 11.039062 82.1875 31.621094 102.769531 57.011719 102.769531 C 59.09375 102.769531 61.136719 102.617188 63.140625 102.351562 L 63.140625 97.121094 L 98.058594 77.488281 " fill-opacity="1" fill-rule="nonzero"/><path fill="#ffffff" d="M 59.375 80.210938 C 62.230469 79.859375 64.585938 78.621094 66.457031 76.5 C 68.320312 74.378906 69.25 71.753906 69.25 68.625 C 69.25 65.960938 68.589844 63.820312 67.269531 62.199219 C 65.953125 60.582031 63.320312 59.136719 59.375 57.855469 Z M 55.050781 29.460938 C 52.195312 29.894531 49.949219 31.035156 48.296875 32.890625 C 46.65625 34.738281 45.832031 36.925781 45.832031 39.457031 C 45.832031 41.957031 46.535156 44.054688 47.929688 45.738281 C 49.335938 47.425781 51.703125 48.769531 55.050781 49.777344 Z M 55.050781 93.753906 L 55.050781 86.414062 C 51.378906 85.953125 48.394531 85.128906 46.09375 83.945312 C 43.800781 82.761719 41.8125 80.851562 40.144531 78.214844 C 38.46875 75.578125 37.496094 72.351562 37.222656 68.542969 L 44.609375 67.15625 C 45.183594 71.101562 46.1875 73.996094 47.628906 75.847656 C 49.695312 78.460938 52.167969 79.914062 55.050781 80.210938 L 55.050781 56.835938 C 52.035156 56.261719 48.949219 55.09375 45.789062 53.328125 C 43.453125 52.023438 41.652344 50.214844 40.390625 47.902344 C 39.117188 45.589844 38.484375 42.964844 38.484375 40.023438 C 38.484375 34.804688 40.335938 30.574219 44.039062 27.335938 C 46.515625 25.164062 50.183594 23.832031 55.050781 23.339844 L 55.050781 19.832031 L 59.375 19.832031 L 59.375 23.339844 C 63.648438 23.75 67.035156 25 69.535156 27.097656 C 72.746094 29.757812 74.679688 33.417969 75.332031 38.070312 L 67.738281 39.210938 C 67.304688 36.328125 66.398438 34.117188 65.027344 32.582031 C 63.652344 31.042969 61.769531 30.03125 59.375 29.542969 L 59.375 50.714844 C 63.078125 51.636719 65.527344 52.363281 66.722656 52.878906 C 69.003906 53.882812 70.867188 55.109375 72.3125 56.550781 C 73.753906 57.992188 74.859375 59.703125 75.640625 61.691406 C 76.414062 63.675781 76.796875 65.824219 76.796875 68.136719 C 76.796875 73.21875 75.183594 77.464844 71.945312 80.863281 C 68.707031 84.265625 64.519531 86.085938 59.375 86.332031 L 59.375 93.753906 L 55.050781 93.753906 " fill-opacity="1" fill-rule="nonzero"/><path fill="#dc3522" d="M 176.742188 36.511719 L 176.742188 11.199219 L 90.808594 11.199219 C 94.550781 13.976562 97.9375 17.199219 100.890625 20.796875 L 167.144531 20.796875 L 167.144531 36.511719 L 146.035156 27.972656 L 171.941406 75.714844 L 197.84375 27.972656 L 176.742188 36.511719 " fill-opacity="1" fill-rule="nonzero"/><g clip-path="url(#2e1a3cd395)"><path fill="#f8a14e" d="M 138.390625 63.539062 L 71.277344 101.273438 L 138.390625 139.007812 L 205.5 101.273438 L 138.390625 63.539062 " fill-opacity="1" fill-rule="nonzero"/></g><path fill="#dc3522" d="M 100.207031 85.007812 L 167.316406 122.742188 L 177.738281 116.878906 L 110.628906 79.144531 L 100.207031 85.007812 " fill-opacity="1" fill-rule="nonzero"/><g clip-path="url(#4d7fa3399c)"><path fill="#e26425" d="M 205.5 101.273438 L 138.390625 139.007812 L 138.390625 205.21875 L 205.5 167.484375 L 205.5 101.273438 " fill-opacity="1" fill-rule="nonzero"/></g><g clip-path="url(#680c471096)"><path fill="#f2853c" d="M 71.277344 101.273438 L 138.390625 139.007812 L 138.390625 205.21875 L 71.277344 167.484375 L 71.277344 101.273438 " fill-opacity="1" fill-rule="nonzero"/></g><path fill="#dc3522" d="M 115.34375 167.335938 L 133.945312 177.792969 L 133.945312 196.148438 L 115.34375 185.6875 L 115.34375 167.335938 " fill-opacity="1" fill-rule="nonzero"/><path fill="#dc3522" d="M 74.6875 162.527344 L 93.292969 172.988281 L 93.292969 170.488281 L 74.6875 160.03125 L 74.6875 162.527344 " fill-opacity="1" fill-rule="nonzero"/><path fill="#dc3522" d="M 177.738281 116.878906 L 167.316406 122.742188 L 167.316406 155.488281 L 177.738281 149.625 L 177.738281 116.878906 " fill-opacity="1" fill-rule="nonzero"/><path fill="#f2853c" d="M 38.558594 180.546875 L 38.558594 155.234375 L 59.664062 163.773438 L 33.757812 116.03125 L 7.859375 163.773438 L 28.960938 155.234375 L 28.960938 190.144531 L 111.578125 190.144531 L 94.507812 180.546875 L 38.558594 180.546875 " fill-opacity="1" fill-rule="nonzero"/></svg>